<?xml version="1.0" encoding="UTF-8" standalone="no"?>
<svg
   width="256"
   height="256"
   version="1.1"
   id="svg2"
   sodipodi:docname="gt-gmt.svg"
   xml:space="preserve"
   inkscape:version="1.4.2 (ebf0e940d0, 2025-05-08)"
   xmlns:inkscape="http://www.inkscape.org/namespaces/inkscape"
   xmlns:sodipodi="http://sodipodi.sourceforge.net/DTD/sodipodi-0.dtd"
   xmlns="http://www.w3.org/2000/svg"
   xmlns:svg="http://www.w3.org/2000/svg"><sodipodi:namedview
     id="namedview2"
     pagecolor="#ffffff"
     bordercolor="#000000"
     borderopacity="0.25"
     inkscape:showpageshadow="2"
     inkscape:pageopacity="0.0"
     inkscape:pagecheckerboard="0"
     inkscape:deskcolor="#d1d1d1"
     inkscape:zoom="1.1367188"
     inkscape:cx="25.072165"
     inkscape:cy="83.573883"
     inkscape:window-width="1440"
     inkscape:window-height="828"
     inkscape:window-x="0"
     inkscape:window-y="0"
     inkscape:window-maximized="1"
     inkscape:current-layer="svg2" /><defs
     id="defs2"><linearGradient
       id="grad"
       x1="0%"
       y1="0%"
       x2="100%"
       y2="100%"><stop
         offset="0%"
         stop-color="#4CAF50"
         id="stop1"
         style="stop-color:#1a1a1a;stop-opacity:1" /><stop
         offset="100%"
         stop-color="#2E7D32"
         id="stop2"
         style="stop-color:#008000;stop-opacity:1" /></linearGradient></defs><rect
     width="256"
     height="256"
     fill="url(#grad)"
     rx="20"
     id="rect2" /><path
     style="fill:#35c88d;stroke:none;stroke-width:0.286979"
     d="m 125.4315,16.554656 c -2.76903,0.52312 -5.04489,2.76746 -5.39947,5.60541 -0.81071,6.48892 -0.0532,13.54582 -0.0532,20.08858 0,3.36665 -0.7065,7.65903 0.22654,10.90522 1.03729,3.60893 4.50496,5.41513 8.09587,4.78431 2.91503,-0.51207 5.04978,-3.04859 5.39968,-5.93223 0.73266,-6.03808 0.053,-12.56865 0.053,-18.65368 0,-3.73304 0.63122,-8.12886 -0.2582,-11.76616 -0.88635,-3.62476 -4.45487,-5.7133 -8.06421,-5.03145 m -20.08857,15.20219 c -6.325069,0.98542 -12.513931,5.80596 -17.218785,9.84012 -16.31863,13.99236 -23.768025,35.82434 -19.966787,56.899688 5.385746,29.860436 33.371002,50.236546 63.300712,48.186906 34.12672,-2.33705 59.25888,-33.80774 54.89394,-67.414544 -2.03782,-15.68958 -10.29488,-29.36383 -22.46524,-39.33835 -4.11818,-3.37516 -10.78934,-8.14344 -16.35783,-8.26307 -5.12283,-0.11006 -8.05352,6.51596 -4.49713,10.20771 2.60567,2.70484 7.13262,3.65328 10.23673,5.79274 6.98147,4.81188 12.74228,11.3804 16.53851,18.97387 14.78082,29.565556 -6.68679,66.028584 -39.49688,68.275474 -35.379052,2.4228 -61.428252,-35.224479 -46.68912,-67.414544 3.478182,-7.5963 9.171427,-14.23979 15.982284,-19.02081 3.417536,-2.399 9.111656,-3.75975 11.606076,-7.09544 3.10907,-4.15763 -0.81308,-10.41706 -5.86648,-9.62975 m 16.64482,31.44131 c -0.36033,2.67365 -2.2682,8.71485 -6.31356,6.95151 -2.70952,-1.18106 -4.24014,-4.28204 -6.8875,-5.51661 -1.48023,2.05906 -3.08202,4.03535 -4.65214,6.02657 -0.6152,0.78019 -1.862,1.83196 -1.97211,2.8698 -0.1975,1.86165 3.04622,3.36038 3.81513,4.87865 0.45202,0.89259 -0.0455,1.7478 -0.38751,2.58282 -1.69571,4.13997 -3.07412,3.02726 -6.847663,4.30469 v 9.757312 c 1.433763,0.01188 3.869553,-0.105956 5.124223,0.625332 0.88995,0.518698 1.11726,1.628798 1.42959,2.531444 1.20253,3.475456 0.67341,4.623726 -2.24912,7.174496 0.92019,1.97323 5.14956,6.85665 7.46147,7.10518 1.6876,0.18143 3.04038,-1.93632 4.59168,-2.32174 4.39649,-1.09232 6.45217,4.03686 6.88751,7.26971 2.20115,0 7.81544,1.02026 9.59542,-0.29495 1.30816,-0.96658 0.8041,-3.52927 1.60055,-4.82928 0.67585,-1.10316 2.84586,-1.63181 4.01395,-2.05647 2.45569,-0.89276 3.51071,2.18157 5.7396,2.3107 1.78191,0.10326 5.88705,-4.5471 6.69752,-6.03523 0.95502,-1.75358 -1.96043,-3.36608 -2.47698,-4.87866 -0.43252,-1.26652 0.94122,-3.676244 1.436,-4.873121 1.06105,-2.566649 3.91729,-0.646055 5.64948,-2.022363 0.62181,-0.494051 0.45871,-1.592453 0.46014,-2.287865 0.004,-2.060485 0.49615,-4.866515 -0.0912,-6.845005 -0.6005,-2.02264 -4.85606,-0.17207 -5.9958,-2.35518 -0.60854,-1.16561 -2.27262,-4.02547 -2.09323,-5.31399 0.21468,-1.54182 2.28607,-2.34241 2.70283,-3.85252 0.43934,-1.5919 -4.35589,-6.21305 -5.76349,-6.86294 -2.46017,-1.13585 -4.26375,3.96268 -7.41277,2.78565 -1.01098,-0.37789 -2.46199,-0.72841 -3.03343,-1.72675 -0.76924,-1.3439 -0.44666,-4.12109 -1.7272,-5.09322 -1.50005,-1.13876 -7.45971,-0.34249 -9.30137,-0.008 m -12.05314,7.74845 c 1.44296,1.44295 4.19363,5.45338 6.31355,5.62731 1.67295,0.13726 4.07845,-1.91236 5.73959,-2.41074 4.37653,-1.31304 9.49103,-0.73011 13.48805,1.46501 9.23225,5.07026 10.76644,18.321877 3.96477,26.025014 -3.49616,3.95953 -8.32366,5.46106 -13.4351,5.45284 -2.44369,-0.004 -4.71112,-0.52953 -6.88752,-1.65987 -2.09195,-1.08647 -3.98183,-2.51091 -5.44818,-4.36781 -1.80096,-2.280628 -2.98841,-4.883887 -3.47099,-7.747341 -0.82983,-4.923903 1.05702,-8.080013 2.03211,-12.627103 0.74708,-3.48384 -6.9001,-4.70953 -3.56732,-8.59256 0.39525,-0.46051 0.7931,-0.7992 1.27104,-1.16475 m 8.03542,31.567754 c 1.22997,-4.332538 4.58252,-8.017857 4.59168,-12.627094 0.002,-1.14006 -0.22887,-4.05541 1.20881,-4.53234 1.62092,-0.5377 1.62196,2.98365 3.37158,2.72675 1.35559,-0.19905 1.62087,-3.78563 3.09345,-2.8574 1.64609,1.03762 1.05117,4.47837 1.35672,6.097886 0.68608,3.636534 3.27886,8.028488 4.74446,11.479178 3.93304,-2.969756 -0.84693,-7.805214 -1.97874,-11.192199 -0.96719,-2.894355 0.21512,-6.001035 -1.02524,-8.896375 -2.42645,-5.66399 -10.20273,-5.51686 -12.72586,0 -1.45105,3.17275 0.16786,6.84595 -1.09589,10.044294 -1.1005,2.785157 -5.61365,7.83533 -1.54097,9.7573 M 61.722017,180.85982 H 45.938135 v 6.31355 h 8.035431 c -0.04982,5.94148 -6.587259,9.30005 -11.766166,6.48072 -2.946061,-1.60379 -4.102033,-5.07368 -4.508636,-8.20261 -0.567308,-4.36557 -0.237471,-10.43392 3.159878,-13.6406 4.2658,-4.0264 11.521928,-1.61265 12.827944,3.8833 l 7.748451,-0.86094 c -1.453736,-11.25684 -15.566721,-15.71405 -24.68025,-9.84345 -6.560103,4.22576 -8.055482,12.04428 -7.737158,19.31377 0.236351,5.39751 2.031345,10.73128 6.302259,14.25465 6.434526,5.30828 17.760029,4.12491 23.215234,-1.91451 3.884289,-4.30029 3.186895,-10.44469 3.186895,-15.78388 m 86.380883,0 h -15.78388 v 6.31355 h 8.32241 c -0.55852,1.83734 -0.67092,3.64632 -2.06997,5.1355 -3.09797,3.29762 -9.38419,2.90848 -12.16696,-0.54803 -3.11767,-3.87247 -3.06355,-10.94344 -1.70771,-15.4927 2.44941,-8.21856 12.46397,-8.15226 15.37068,-0.57396 l 7.74845,-0.86094 c -2.24866,-11.58838 -16.92059,-16.23414 -26.11515,-8.76218 -5.54587,4.50684 -6.45922,12.1137 -6.00088,18.80647 0.33105,4.83421 1.78972,9.50234 5.42803,12.88728 5.95945,5.54447 17.39264,5.53789 23.21744,-0.28698 4.42647,-4.42648 3.75754,-10.89195 3.75754,-16.61801 M 65.452752,163.35405 v 7.17449 h 10.618247 v 30.41985 l 8.03543,-0.28698 v -30.13287 h 10.618247 v -7.17449 H 65.452752 m 88.963698,0 v 37.30736 h 7.46147 v -16.07086 l -0.28699,-8.89637 h 0.28699 c 1.98061,4.75721 4.77195,9.18668 7.1045,13.77502 0.70835,1.39339 1.73233,4.36919 3.25687,4.99248 1.01399,0.41455 2.9564,0.37375 3.71037,-0.49202 2.15432,-2.47384 3.43861,-6.46427 4.94308,-9.37911 1.51763,-2.94034 3.74828,-5.94641 4.5175,-9.18335 h 0.28698 v 16.9318 l 0.28699,8.60939 7.46147,-0.28698 v -37.30736 c -2.19576,0 -6.91476,-0.89765 -8.78433,0.29496 -1.42671,0.9101 -2.3842,3.97274 -3.18025,5.44464 -2.58375,4.77741 -5.46217,9.62114 -7.55004,14.63596 -3.00168,-4.39121 -5.12354,-9.65926 -7.65988,-14.34899 -0.86962,-1.60793 -1.7743,-4.72216 -3.3574,-5.73161 -1.81994,-1.16049 -6.36258,-0.29496 -8.49733,-0.29496 m 43.33391,0 v 7.17449 h 10.61825 l -0.24357,20.82773 0.24357,9.59212 8.03544,-0.28698 v -30.13287 h 10.61825 v -7.17449 H 197.75036 M 95.298638,180.85982 v 6.8875 h 15.496902 v -6.8875 H 95.298638 m 10.618252,42.47298 h -7.748458 v 3.15677 h 4.017708 c -0.51328,3.40916 -4.294043,5.61768 -7.162083,3.09234 -3.200943,-2.81846 -2.917158,-11.62991 2.57042,-11.64792 2.475813,-0.008 2.826413,2.19109 4.686003,2.91851 0.96,0.37553 2.3158,-0.1699 3.34943,-0.10254 -0.30629,-5.90454 -7.756029,-7.90539 -12.340132,-5.29959 -3.845588,2.18598 -4.475904,6.44495 -4.293396,10.46523 0.325111,7.16139 9.156539,10.99018 14.612268,6.21921 2.65131,-2.31854 2.30824,-5.62123 2.30824,-8.80202 m -52.517284,-8.60938 v 18.94065 h 3.443757 v -1.43489 c 8.952657,8.35189 15.001499,-13.8825 3.156776,-12.88708 -1.249467,0.10501 -2.175914,0.67496 -3.156776,1.4079 v -6.02658 h -3.443757 m 56.248014,0 v 18.94065 h 3.73074 v -12.34012 h 0.28698 l 5.78011,8.89637 2.40391,3.14881 3.86913,0.29494 v -18.94065 h -3.44376 v 12.91408 l -6.12135,-8.89636 -2.82794,-3.72277 -3.67782,-0.29495 m 20.66255,0 c 0,4.62943 -1.36535,11.89049 0.87511,16.06976 2.53613,4.73081 11.02785,4.5066 13.65656,8.6e-4 2.37288,-4.0672 0.96522,-11.47555 0.96522,-16.07062 h -3.73074 c 0,3.98577 1.0578,9.77348 -0.53211,13.48783 -0.99935,2.33468 -4.35635,3.19633 -6.24246,1.32195 -2.80745,-2.78999 -1.26085,-11.1251 -1.26085,-14.80978 h -3.73073 m 18.94065,0 v 3.44375 h 5.16563 v 15.4969 h 4.01771 c 0,-4.73952 1.05499,-10.95691 -0.28698,-15.4969 h 5.73959 v -3.44375 h -14.63595 m 17.79273,0 c 0,4.57549 -1.31198,11.59565 0.73714,15.78388 2.4639,5.03598 11.26435,4.89711 14.0474,0.28588 2.42487,-4.01773 0.99934,-11.5085 0.99934,-16.06976 h -3.73074 c 0,3.86268 1.06273,9.60189 -0.4256,13.19996 -1.14287,2.76294 -4.93909,3.58587 -6.88951,1.11892 -2.43174,-3.07573 -1.0073,-10.5779 -1.0073,-14.31888 h -3.73073 m 18.94066,0 5.02435,8.77458 -1.58061,2.99158 -4.59166,7.17449 c 1.25826,0 3.07276,0.33162 4.24447,-0.17315 2.0167,-0.86879 3.5796,-5.16591 4.65189,-7.00134 0.79032,1.8317 2.74197,6.19993 4.64482,7.00134 1.1134,0.46892 2.77412,0.17315 3.96457,0.17315 l -5.62423,-9.92249 1.54407,-2.70461 4.08016,-6.31355 c -4.52184,0 -6.40674,1.57806 -8.03543,6.02658 h -0.57396 c -1.56045,-4.26212 -3.35586,-6.02658 -7.74844,-6.02658 m -118.522601,4.87866 c 1.25876,4.40327 4.401927,8.68281 5.106729,13.20106 0.362174,2.32177 -1.703758,3.42051 -3.67183,3.44375 5.74e-4,0.79874 -0.193444,2.02532 0.338355,2.69664 1.307619,1.65067 4.790347,-0.32402 5.610274,-1.56112 3.160576,-4.76865 5.680343,-12.28102 7.252435,-17.78033 -1.044101,0 -2.7009,-0.3069 -3.610718,0.29494 -1.919753,1.26994 -2.867578,6.74881 -3.563774,8.8884 l -3.6054,-8.8884 -3.856071,-0.29494 m -8.317978,3.01748 c 4.269612,-1.29251 5.189114,7.01381 1.429364,8.00622 -4.253391,1.12269 -4.754581,-6.99958 -1.429364,-8.00622 z"
     id="path2"
     sodipodi:nodetypes="csssssssccsssssssssssssccscssssccsscsscsssssssssssssssssccssssssssssccssssscsssscccccsssccssssccccccssccssssccccccccccccccccsscsccccccsscssccccccccccccccccccccssscssscccccsccccccccccccccccccssccssccccccccccccssccssccccccscsccccccccscsccscccscs" /></svg>
